<?xml version='1.0' encoding='utf-8'?>
<svg xmlns="http://www.w3.org/2000/svg" width="100%" height="100%" viewBox="0 0 2099 1780" version="1.1" style="fill-rule:evenodd;clip-rule:evenodd;stroke-linejoin:round;stroke-miterlimit:2;"> <g transform="matrix(1,0,0,1,-520.33,-663.838)"> <g transform="matrix(4.16667,0,0,4.16667,0,0)"> <g transform="matrix(0.327678,0,0,0.330638,-256.556,-39.0333)"> <rect x="1164.06" y="599.914" width="1536.9" height="1291.65" style="fill:white;"/> </g> </g> <g transform="matrix(4.16667,0,0,4.16667,0,0)"> <g transform="matrix(1.529,0,0,1.529,334.936,249.425)"> <path d="M0,78.664C4.473,79.28 16.016,59.397 11.746,40.83C5.421,13.332 -34.945,-8.48 -56.773,4.547C-69.882,12.372 -71.142,29.679 -71.187,30.455C-73.041,62.498 -26.689,87.144 -17.341,80.121C-11.181,75.492 -18.91,55.466 -22.04,47.356C-28.947,29.46 -39.938,17.698 -46.805,11.414C-33.619,16.677 -18.741,25.483 -10.247,40.984C-0.115,59.475 -4.227,78.081 0,78.664" style="fill:rgb(210,102,27);fill-rule:nonzero;"/> </g> </g> <g transform="matrix(4.16667,0,0,4.16667,0,0)"> <g transform="matrix(1.529,0,0,1.529,409.634,249.425)"> <path d="M0,78.664C-4.473,79.28 -16.017,59.397 -11.745,40.83C-5.421,13.332 34.945,-8.48 56.773,4.547C69.882,12.372 71.142,29.679 71.187,30.455C73.041,62.498 26.689,87.144 17.342,80.121C11.181,75.492 18.91,55.466 22.04,47.356C28.947,29.46 39.938,17.698 46.805,11.414C33.619,16.677 18.741,25.483 10.247,40.984C0.115,59.475 4.227,78.081 0,78.664" style="fill:rgb(210,102,27);fill-rule:nonzero;"/> </g> </g> <g transform="matrix(4.16667,0,0,4.16667,0,0)"> <g transform="matrix(-1.14763,1.01034,1.01034,1.14763,303.139,334.915)"> <path d="M17.513,-45.422C21.4,-45.569 24.531,-34.03 25.214,-25.316C26.294,-11.532 22.042,5.255 17.513,5.63C12.623,6.037 6.164,-12.594 9.622,-29.714C10.825,-35.671 14.005,-45.288 17.513,-45.422" style="fill:rgb(179,85,23);fill-rule:nonzero;"/> </g> </g> <g transform="matrix(4.16667,0,0,4.16667,0,0)"> <g transform="matrix(-1.14763,-1.01034,-1.01034,1.14763,440.668,334.915)"> <path d="M-17.513,-45.422C-21.4,-45.569 -24.53,-34.029 -25.214,-25.315C-26.294,-11.532 -22.041,5.256 -17.513,5.63C-12.623,6.037 -6.164,-12.594 -9.621,-29.714C-10.824,-35.67 -14.004,-45.288 -17.513,-45.422" style="fill:rgb(179,85,23);fill-rule:nonzero;"/> </g> </g> <g transform="matrix(4.16667,0,0,4.16667,0,0)"> <g transform="matrix(-1.39901,-0.616925,-0.616925,1.39901,414.192,344.116)"> <path d="M-11.942,-48.499C-12.789,-48.239 -7.087,-36.043 -8.168,-18.257C-8.92,-5.844 -12.54,2.115 -11.942,2.306C-11.22,2.536 -4.561,-8.653 -4.411,-22.774C-4.256,-37.359 -11.109,-48.755 -11.942,-48.499" style="fill:rgb(236,236,236);fill-rule:nonzero;"/> </g> </g> <g transform="matrix(4.16667,0,0,4.16667,0,0)"> <g transform="matrix(-1.35706,0.70444,0.70444,1.35706,339.066,339.252)"> <path d="M11.16,-44.596C10.209,-44.786 3.961,-30.24 6.148,-13.261C7.273,-4.523 10.42,3.214 11.16,3.051C11.879,2.892 10.029,-4.679 9.502,-15.91C8.658,-33.829 11.963,-44.435 11.16,-44.596" style="fill:rgb(236,236,236);fill-rule:nonzero;"/> </g> </g> <g transform="matrix(4.16667,0,0,4.16667,0,0)"> <g transform="matrix(1.529,0,0,1.529,395.534,237.115)"> <path d="M0,14.829C0.805,21.72 -5.112,27.284 -4.064,27.583C-2.829,27.936 6.897,20.644 6.826,13.356C6.768,7.373 0.159,6.882 -0.645,0C-1.449,-6.891 4.469,-12.455 3.42,-12.754C2.186,-13.107 -7.542,-5.816 -7.471,1.473C-7.412,7.455 -0.803,7.947 0,14.829" style="fill:rgb(217,164,119);fill-rule:nonzero;"/> </g> </g> <g transform="matrix(4.16667,0,0,4.16667,0,0)"> <g transform="matrix(1.529,0,0,1.529,356.795,213.396)"> <path d="M0,14.829C0.805,21.72 -5.113,27.284 -4.065,27.583C-2.83,27.936 6.897,20.644 6.826,13.356C6.767,7.373 0.158,6.882 -0.645,-0.001C-1.45,-6.891 4.468,-12.455 3.42,-12.754C2.185,-13.107 -7.542,-5.816 -7.471,1.472C-7.413,7.455 -0.804,7.947 0,14.829" style="fill:rgb(217,164,119);fill-rule:nonzero;"/> </g> </g> <g transform="matrix(4.16667,0,0,4.16667,0,0)"> <g transform="matrix(1.529,0,0,1.529,373.674,270.308)"> <path d="M0,14.829C0.804,21.72 -5.113,27.284 -4.065,27.583C-2.83,27.936 6.897,20.644 6.826,13.356C6.767,7.373 0.158,6.882 -0.645,0C-1.45,-6.89 4.468,-12.454 3.419,-12.754C2.185,-13.107 -7.542,-5.815 -7.471,1.473C-7.413,7.456 -0.804,7.947 0,14.829" style="fill:rgb(217,164,119);fill-rule:nonzero;"/> </g> </g> <g transform="matrix(4.16667,0,0,4.16667,0,0)"> <g transform="matrix(1.529,0,0,1.529,560.603,454.997)"> <path d="M0,-44.209C-2.957,-38.82 -11.778,-35.505 -21.589,-37.444C-20.153,-41.781 -19.304,-45.135 -18.835,-46.991C-16.572,-55.942 -15.553,-64.404 -15.291,-72.092C-0.877,-65.916 3.994,-51.49 0,-44.209M-246.901,-44.209C-250.33,-50.993 -245.157,-64.499 -230.864,-71.145C-230.713,-67.298 -230.384,-63.29 -229.802,-59.127C-229.291,-55.481 -228.155,-47.426 -225.128,-37.396C-235.379,-35.733 -244.24,-38.946 -246.901,-44.209M-15.45,-83.63C-15.919,-91.395 -17.044,-97.953 -18.112,-102.847C-19.733,-93.226 -24.078,-77.901 -36.755,-65.557C-58.956,-43.94 -99.206,-38.776 -116.003,-56.101C-120.455,-60.694 -122.488,-66.071 -123.508,-69.958C-124.359,-65.964 -126.146,-60.641 -130.326,-56.101C-146.307,-38.744 -187.331,-43.379 -209.574,-65.557C-222.735,-78.681 -226.467,-95.102 -227.66,-104.462C-228.377,-101.896 -229.04,-99.052 -229.563,-95.954C-230.321,-91.474 -230.638,-87.366 -230.709,-83.763C-254.746,-76.058 -263.744,-52.21 -256.85,-38.64C-251.878,-28.853 -237.078,-22.568 -220.95,-25.648C-217.558,-17.026 -207.014,6.425 -181.254,22.975C-161.018,35.976 -141.298,38.352 -131.799,38.867C-131.846,40.541 -131.893,42.216 -131.939,43.891C-173.816,47.056 -182.792,49.934 -182.813,52.03C-182.854,55.951 -151.558,60.253 -123.415,60.253C-95.271,60.253 -63.976,55.951 -64.016,52.03C-64.038,49.933 -73.026,47.054 -114.969,43.89C-115.006,42.141 -115.043,40.392 -115.081,38.643C-105.129,37.815 -88.308,35.046 -70.595,24.759C-42.72,8.571 -30.461,-15.885 -26.34,-25.266C-10.192,-22.01 4.832,-28.502 9.948,-38.64C16.774,-52.168 7.855,-75.943 -15.45,-83.63" style="fill:rgb(217,164,119);fill-rule:nonzero;"/> </g> </g> </g> </svg>